<svg width="124" height="55" viewBox="0 0 124 55" fill="none" xmlns="http://www.w3.org/2000/svg">
<path fill-rule="evenodd" clip-rule="evenodd" d="M0 17.1929V25.7918H25.2916C28.2313 25.7918 31.9871 23.0884 31.9871 18.6163C31.9871 16.8177 32.6789 15.6445 30.5532 13.2653L27.3182 9.4533C25.4645 7.73353 27.5396 7.73353 29.0966 7.73353H39.775V25.7918H48.2435V7.73353H59.6573V0H22.6977C18.2009 0 16.0021 4.29399 16.1258 6.52969C16.2502 8.76539 16.6637 11.5782 20.4004 14.9572C23.8091 18.0385 18.7129 17.1929 18.2009 17.1929H0ZM78.3832 0H64.7214L57.0627 25.7925H65.586L66.9687 22.1809H75.9608L77.2957 25.7925H85.6447L78.3832 0ZM68.8716 15.9891L71.8113 6.52969L74.5788 15.9891H68.8716ZM112.623 17.1929C109.338 17.1929 109.338 15.9891 109.338 15.9891C112.153 15.9891 114.649 11.9099 114.649 7.73353C114.649 3.55714 110.548 0 107.261 0H88.8811V25.7925H98.2204V17.1936C98.2204 17.1936 102.197 21.837 104.272 23.7287C106.348 25.6205 106.52 25.7925 109.337 25.7925H123.997V17.1936C123.999 17.1929 115.909 17.1929 112.623 17.1929ZM104.149 11.1737H98.2218V6.52969H104.149C106.867 6.52969 107.337 11.1737 104.149 11.1737ZM0 29.0593H9.55466L11.9756 37.6595L14.2236 29.0593H24.254L26.8479 37.6595L29.4425 29.0593H37.7429L30.1335 54.8579H22.5248L19.1906 42.6462L15.4341 54.8579H7.65247L0 29.0593ZM57.3519 29.2082H43.69L36.0321 55H44.5547L45.9381 51.3892H54.9309L56.2658 55H64.6154L57.3519 29.2082ZM47.8409 45.1966L50.7807 35.7372L53.5475 45.1966H47.8409ZM112.795 36.7997C111.24 36.7997 109.545 36.9805 111.399 38.6996L114.635 42.5123C116.76 44.8914 116.726 45.8832 116.726 47.6832C116.726 52.1546 112.277 54.8579 109.338 54.8579L88.9036 54.9946C86.0883 54.9946 85.916 54.8233 83.8402 52.9315C81.7658 51.0398 77.7878 46.3957 77.7878 46.3957V54.9946H68.4499V29.2028H86.8299C90.1155 29.2028 94.2178 32.7606 94.2178 36.9363C94.2178 41.1134 91.7217 45.1919 88.905 45.1919C88.905 45.1919 90.1435 46.4304 92.2186 46.4304C94.2944 46.4304 102.285 46.4385 102.285 46.4385C102.796 46.4385 107.891 47.2841 104.483 44.2028C100.747 40.8238 100.333 38.0123 100.209 35.7766C100.084 33.5409 102.028 29.06 106.523 29.06H124V36.8003L112.795 36.7997ZM83.7158 40.3758H77.7872V35.7318H83.7158C86.4341 35.7318 86.9037 40.3758 83.7158 40.3758Z" fill="#25282B"/>
</svg>
